<svg width="46" height="82" viewBox="0 0 46 82" fill="none" xmlns="http://www.w3.org/2000/svg">
<path d="M30.3433 76.8408L30.3989 58.966L40.1774 58.9964L40.1218 76.8712" stroke="black" stroke-opacity="0.4" stroke-miterlimit="10"/>
<path d="M30.3989 58.9668L30.409 55.7171L33.6686 55.7272L33.6737 54.1023L36.9327 54.1125L36.9276 55.7374L40.1872 55.7475L40.1771 58.9972L30.3989 58.9668Z" stroke="black" stroke-opacity="0.4" stroke-miterlimit="10"/>
<path d="M1.07617 55.625L1.08628 52.3753L30.4195 52.4665L30.4094 55.7163L1.07617 55.625Z" stroke="black" stroke-opacity="0.4" stroke-miterlimit="10"/>
<path d="M27.0838 76.8308L33.6024 76.851L35.2421 73.6064L36.8514 80.1115L38.491 76.8663L45.0096 76.8865" stroke="black" stroke-opacity="0.4" stroke-miterlimit="10"/>
<path d="M30.3433 76.8408L30.3989 58.966L32.0284 58.9711L31.9728 76.8459L30.3433 76.8408Z" stroke="black" stroke-opacity="0.4" stroke-miterlimit="10"/>
<path d="M38.4912 76.8662L38.5468 58.9914L40.1764 58.9965L40.1208 76.8713L38.4912 76.8662Z" stroke="black" stroke-opacity="0.4" stroke-miterlimit="10"/>
<path d="M30.5001 26.4665C14.2869 26.4161 1.13065 38.0036 1.08594 52.375" stroke="black" stroke-opacity="0.4" stroke-miterlimit="10"/>
<path d="M30.5659 5.34197L30.5103 23.2168L40.2888 23.2472L40.3444 5.3724" stroke="black" stroke-opacity="0.4" stroke-miterlimit="10"/>
<path d="M30.5103 23.2167L30.5002 26.4664L33.7597 26.4765L33.7547 28.1014L37.0137 28.1116L37.0187 26.4867L40.2783 26.4968L40.2884 23.2471L30.5103 23.2167Z" stroke="black" stroke-opacity="0.4" stroke-miterlimit="10"/>
<path d="M27.3065 5.33182L33.8251 5.3521L35.4445 8.60689L37.0943 2.11194L38.7137 5.3673L45.2323 5.38758" stroke="black" stroke-opacity="0.4" stroke-miterlimit="10"/>
<path d="M38.6582 23.2422L38.7138 5.36737L40.3434 5.37244L40.2877 23.2473L38.6582 23.2422Z" stroke="black" stroke-opacity="0.4" stroke-miterlimit="10"/>
<path d="M33.7771 20.7897L32.9621 20.7872L32.957 22.4121L37.8461 22.4273L37.8512 20.8024L37.0361 20.7999" stroke="black" stroke-opacity="0.4" stroke-miterlimit="10"/>
<path d="M30.5103 23.2168L30.5659 5.34197L32.1954 5.34704L32.1398 23.2219L30.5103 23.2168Z" stroke="black" stroke-opacity="0.4" stroke-miterlimit="10"/>
</svg>
