<svg width="46" height="82" viewBox="0 0 46 82" fill="none" xmlns="http://www.w3.org/2000/svg">
<path d="M15.4561 5.04785L15.3327 22.9223L5.55431 22.8548L5.67768 4.98036" stroke="black" stroke-opacity="0.4" stroke-miterlimit="10"/>
<path d="M15.3335 22.9224L15.3111 26.1723L12.0512 26.1498L12.04 27.7749L8.78079 27.7524L8.79201 26.1273L5.53219 26.1048L5.55462 22.8549L15.3335 22.9224Z" stroke="black" stroke-opacity="0.4" stroke-miterlimit="10"/>
<path d="M44.6431 26.3745L44.6206 29.6242L15.288 29.4217L15.3104 26.1721L44.6431 26.3745Z" stroke="black" stroke-opacity="0.4" stroke-miterlimit="10"/>
<path d="M18.7158 5.07005L12.1974 5.02506L10.5455 8.26348L8.96081 1.75234L7.30886 4.99132L0.790408 4.94633" stroke="black" stroke-opacity="0.4" stroke-miterlimit="10"/>
<path d="M15.4561 5.04785L15.3327 22.9223L13.7032 22.9111L13.8265 5.0366L15.4561 5.04785Z" stroke="black" stroke-opacity="0.4" stroke-miterlimit="10"/>
<path d="M7.30811 4.99121L7.18473 22.8657L5.55522 22.8544L5.67859 4.97996L7.30811 4.99121Z" stroke="black" stroke-opacity="0.4" stroke-miterlimit="10"/>
<path d="M15.109 55.4208C31.3218 55.5327 44.5219 43.9951 44.6211 29.624" stroke="black" stroke-opacity="0.4" stroke-miterlimit="10"/>
<path d="M12.0902 20.4626L12.9053 20.4683L12.8941 22.0933L8.00458 22.0595L8.01579 20.4345L8.83091 20.4401" stroke="black" stroke-opacity="0.4" stroke-miterlimit="10"/>
<path d="M14.9631 76.5449L15.0864 58.6704L5.30805 58.6029L5.18468 76.4774" stroke="black" stroke-opacity="0.4" stroke-miterlimit="10"/>
<path d="M15.0865 58.6709L15.1089 55.4209L11.8491 55.3984L11.8603 53.7734L8.60106 53.7509L8.58984 55.3759L5.33002 55.3534L5.30759 58.6034L15.0865 58.6709Z" stroke="black" stroke-opacity="0.4" stroke-miterlimit="10"/>
<path d="M18.2222 76.5675L11.7037 76.5225L10.0967 73.2616L8.42229 79.7503L6.81521 76.4888L0.296759 76.4438" stroke="black" stroke-opacity="0.4" stroke-miterlimit="10"/>
<path d="M6.93799 58.6152L6.81462 76.4897L5.1851 76.4785L5.30848 58.604L6.93799 58.6152Z" stroke="black" stroke-opacity="0.4" stroke-miterlimit="10"/>
<path d="M11.8099 61.0862L12.625 61.0918L12.6362 59.4668L7.74675 59.433L7.73554 61.0581L8.55065 61.0637" stroke="black" stroke-opacity="0.4" stroke-miterlimit="10"/>
<path d="M15.0864 58.6704L14.9631 76.5449L13.3335 76.5336L13.4569 58.6592L15.0864 58.6704Z" stroke="black" stroke-opacity="0.4" stroke-miterlimit="10"/>
</svg>
