<svg width="319" height="172" viewBox="0 0 319 172" fill="none" xmlns="http://www.w3.org/2000/svg">
<path d="M101.246 90.1326C97.7457 90.1326 94.7707 89.2226 92.3207 87.4026L94.5607 83.9376C96.7307 85.3142 98.8541 86.0026 100.931 86.0026C102.261 86.0026 103.299 85.7926 104.046 85.3726C104.816 84.9526 105.201 84.3226 105.201 83.4826C105.201 82.9692 105.072 82.5492 104.816 82.2226C104.582 81.8726 104.151 81.5459 103.521 81.2426C102.914 80.9159 101.992 80.5076 100.756 80.0176L99.9507 79.7026C98.4574 79.1192 97.2557 78.5592 96.3457 78.0226C95.4357 77.4859 94.7124 76.7976 94.1757 75.9576C93.6391 75.1176 93.3707 74.0559 93.3707 72.7726C93.3707 71.3492 93.7791 70.1709 94.5957 69.2376C95.4124 68.2809 96.4624 67.5809 97.7457 67.1376C99.0291 66.6942 100.394 66.4726 101.841 66.4726C103.147 66.4726 104.489 66.6942 105.866 67.1376C107.266 67.5576 108.596 68.1876 109.856 69.0276L107.581 72.4576C106.461 71.7809 105.469 71.2909 104.606 70.9876C103.742 70.6842 102.809 70.5326 101.806 70.5326C100.686 70.5326 99.8341 70.7192 99.2507 71.0926C98.6907 71.4659 98.4107 71.9676 98.4107 72.5976C98.4107 72.9942 98.5274 73.3559 98.7607 73.6826C98.9941 73.9859 99.4141 74.3009 100.021 74.6276C100.627 74.9309 101.502 75.2926 102.646 75.7126L103.416 75.9926C104.909 76.5526 106.111 77.0776 107.021 77.5676C107.954 78.0576 108.736 78.7576 109.366 79.6676C109.996 80.5776 110.311 81.7559 110.311 83.2026C110.311 84.7192 109.914 86.0026 109.121 87.0526C108.327 88.0792 107.242 88.8492 105.866 89.3626C104.512 89.8759 102.972 90.1326 101.246 90.1326ZM139.548 66.9626V71.1976H132.478V89.6426H127.508V71.1976H120.263V66.9626H139.548ZM160.27 66.9626L168.425 89.3626V89.6426H163.14L161.32 84.2176H152.92L151.135 89.6426H145.92V89.3626L154.075 66.9626H160.27ZM154.25 80.2276H159.99L157.085 71.5826L154.25 80.2276ZM197.384 76.5876V87.9276C195.821 88.7209 194.351 89.2926 192.974 89.6426C191.621 89.9692 190.232 90.1326 188.809 90.1326C185.006 90.1326 182.217 89.0826 180.444 86.9826C178.671 84.8592 177.784 82.0009 177.784 78.4076C177.784 75.6542 178.286 73.3909 179.289 71.6176C180.292 69.8209 181.646 68.5142 183.349 67.6976C185.052 66.8809 186.989 66.4726 189.159 66.4726C190.582 66.4726 191.947 66.6592 193.254 67.0326C194.561 67.3826 195.762 67.9076 196.859 68.6076L194.829 72.1426C193.056 71.0926 191.247 70.5676 189.404 70.5676C187.234 70.5676 185.612 71.2326 184.539 72.5626C183.466 73.8692 182.929 75.7476 182.929 78.1976C182.929 80.7876 183.419 82.7242 184.399 84.0076C185.402 85.2676 186.977 85.8976 189.124 85.8976C190.337 85.8976 191.434 85.7109 192.414 85.3376V80.6126H187.584L188.144 76.5876H197.384ZM215.309 85.5826H225.669V89.6426H210.339V66.9626H225.494V70.9876H215.309V76.0976H224.094L223.534 80.0876H215.309V85.5826Z" fill="black" fill-opacity="0.3"/>
<path d="M3 6.87788V35.4243L42.2841 102.032L81.5683 168.641H237.506L316 26.8212V3" stroke="black" stroke-opacity="0.25" stroke-width="5" stroke-linecap="round"/>
</svg>
